<svg xmlns="http://www.w3.org/2000/svg" viewBox="0 0 1200 900"><defs><linearGradient id="a" x2="0" y2="1"><stop stop-color="#50655b"/><stop offset="1" stop-color="#16211c"/></linearGradient></defs><rect width="1200" height="900" fill="url(#a)"/><circle cx="950" cy="170" r="190" fill="#e33b21"/><path d="M0 540 280 245l180 190 210-267 269 329 150-150 111 162v391H0Z" fill="#263c33"/><g transform="translate(295 420)"><path d="M90 75h660l110 115v190H20V180Z" fill="#28302c" stroke="#080b09" stroke-width="20"/><path d="M180 88h400l82 95H141Z" fill="#9da89f"/><path d="M20 245h840" stroke="#d9ff43" stroke-width="16"/><circle cx="210" cy="375" r="81" fill="#101411" stroke="#4b524c" stroke-width="21"/><circle cx="700" cy="375" r="81" fill="#101411" stroke="#4b524c" stroke-width="21"/></g><g transform="translate(90 430)"><circle cx="125" cy="77" r="63" fill="#c4875f"/><path d="M47 275c10-105 49-150 78-150s68 45 78 150Z" fill="#f0ece2"/><path d="M72 58c33-67 101-44 113 10-53-20-78-20-113-10Z" fill="#161b18"/></g><text x="78" y="828" fill="#f5f3ed" font-family="Arial" font-size="27" font-weight="900" letter-spacing="6">VERIFIED WINNER / NS-022</text></svg>
